<?xml version="1.0" standalone="no"?>
<!DOCTYPE svg PUBLIC "-//W3C//DTD SVG 20010904//EN"
 "http://www.w3.org/TR/2001/REC-SVG-20010904/DTD/svg10.dtd">
<svg version="1.0" xmlns="http://www.w3.org/2000/svg"
 width="512.000000pt" height="512.000000pt" viewBox="0 0 512.000000 512.000000"
 preserveAspectRatio="xMidYMid meet">

<g transform="translate(0.000000,512.000000) scale(0.100000,-0.100000)"
fill="#fff" stroke="none">
<path d="M1345 4791 c-11 -5 -29 -19 -40 -31 -19 -21 -20 -38 -23 -471 l-3
-448 -448 -3 -449 -3 -26 -24 c-51 -48 -40 -142 20 -170 17 -8 162 -11 464
-11 l440 0 2 -1145 3 -1145 28 -27 27 -28 1145 -3 1145 -2 0 -440 c0 -302 3
-447 11 -464 28 -60 122 -71 170 -20 l24 26 3 449 3 448 449 3 450 3 26 26
c16 16 28 41 31 67 5 37 2 45 -30 77 l-35 35 -446 0 -446 0 -2 1145 -3 1145
-28 27 -27 28 -1145 3 -1145 2 0 440 c0 294 -4 447 -11 463 -21 45 -84 68
-134 48z m2285 -2231 l0 -1070 -1070 0 -1070 0 0 1070 0 1070 1070 0 1070 0 0
-1070z"/>
</g>
</svg>
